<svg width="683" height="683" viewBox="0 0 683 683" fill="none" xmlns="http://www.w3.org/2000/svg">
<g filter="url(#filter0_f_3_1516)">
<rect x="195.23" y="375.018" width="40.4741" height="130.617" rx="20.237" fill="url(#paint0_linear_3_1516)"/>
</g>
<rect x="195.23" y="375.018" width="40.4741" height="130.617" rx="20.237" fill="url(#paint1_linear_3_1516)"/>
<rect x="195.23" y="389.426" width="40.4741" height="116.209" rx="20.237" fill="url(#paint2_linear_3_1516)"/>
<rect x="195.23" y="408.668" width="40.4741" height="96.7583" rx="20.237" fill="url(#paint3_linear_3_1516)"/>
<rect x="195.23" y="425.11" width="40.4741" height="80.3157" rx="20.237" fill="url(#paint4_linear_3_1516)"/>
<g filter="url(#filter1_f_3_1516)">
<rect x="235.704" y="321.263" width="40.4741" height="184.371" rx="20.237" fill="url(#paint5_linear_3_1516)"/>
</g>
<rect x="235.704" y="321.263" width="40.4741" height="184.371" rx="20.237" fill="url(#paint6_linear_3_1516)"/>
<rect x="235.704" y="341.6" width="40.4741" height="164.034" rx="20.237" fill="url(#paint7_linear_3_1516)"/>
<rect x="235.704" y="368.762" width="40.4741" height="136.579" rx="20.237" fill="url(#paint8_linear_3_1516)"/>
<rect x="235.704" y="391.971" width="40.4741" height="113.369" rx="20.237" fill="url(#paint9_linear_3_1516)"/>
<g filter="url(#filter2_f_3_1516)">
<rect x="276.178" y="279.524" width="40.4741" height="226.01" rx="20.237" fill="url(#paint10_linear_3_1516)"/>
</g>
<rect x="276.178" y="279.524" width="40.4741" height="226.01" rx="20.237" fill="url(#paint11_linear_3_1516)"/>
<rect x="276.178" y="304.692" width="40.4741" height="201.079" rx="20.237" fill="url(#paint12_linear_3_1516)"/>
<rect x="276.178" y="337.75" width="40.4741" height="167.424" rx="20.237" fill="url(#paint13_linear_3_1516)"/>
<rect x="276.178" y="366.201" width="40.4741" height="138.973" rx="20.237" fill="url(#paint14_linear_3_1516)"/>
<g filter="url(#filter3_f_3_1516)">
<rect x="438.075" y="337.706" width="40.4741" height="167.89" rx="20.237" fill="url(#paint15_linear_3_1516)"/>
</g>
<rect x="438.075" y="337.706" width="40.4741" height="167.89" rx="20.237" fill="url(#paint16_linear_3_1516)"/>
<rect x="438.075" y="356.402" width="40.4741" height="149.37" rx="20.237" fill="url(#paint17_linear_3_1516)"/>
<rect x="438.075" y="380.958" width="40.4741" height="124.369" rx="20.237" fill="url(#paint18_linear_3_1516)"/>
<rect x="438.075" y="402.093" width="40.4741" height="103.235" rx="20.237" fill="url(#paint19_linear_3_1516)"/>
<g filter="url(#filter4_f_3_1516)">
<rect x="397.6" y="297.864" width="40.4741" height="207.689" rx="20.237" fill="url(#paint20_linear_3_1516)"/>
</g>
<rect x="397.6" y="297.864" width="40.4741" height="207.689" rx="20.237" fill="url(#paint21_linear_3_1516)"/>
<rect x="397.6" y="320.992" width="40.4741" height="184.78" rx="20.237" fill="url(#paint22_linear_3_1516)"/>
<rect x="397.6" y="351.37" width="40.4741" height="153.852" rx="20.237" fill="url(#paint23_linear_3_1516)"/>
<rect x="397.6" y="377.515" width="40.4741" height="127.707" rx="20.237" fill="url(#paint24_linear_3_1516)"/>
<g filter="url(#filter5_f_3_1516)">
<rect x="357.126" y="242.844" width="40.4741" height="262.651" rx="20.237" fill="url(#paint25_linear_3_1516)"/>
</g>
<rect x="357.126" y="242.844" width="40.4741" height="262.651" rx="20.237" fill="url(#paint26_linear_3_1516)"/>
<rect x="357.126" y="272.093" width="40.4741" height="233.679" rx="20.237" fill="url(#paint27_linear_3_1516)"/>
<rect x="357.126" y="310.51" width="40.4741" height="194.567" rx="20.237" fill="url(#paint28_linear_3_1516)"/>
<rect x="357.126" y="343.573" width="40.4741" height="161.503" rx="20.237" fill="url(#paint29_linear_3_1516)"/>
<g filter="url(#filter6_f_3_1516)">
<rect x="316.652" y="189.09" width="40.4741" height="316.349" rx="20.237" fill="url(#paint30_linear_3_1516)"/>
</g>
<rect x="316.652" y="189.09" width="40.4741" height="316.349" rx="20.237" fill="url(#paint31_linear_3_1516)"/>
<rect x="316.652" y="224.318" width="40.4741" height="281.454" rx="20.237" fill="url(#paint32_linear_3_1516)"/>
<rect x="316.652" y="270.589" width="40.4741" height="234.345" rx="20.237" fill="url(#paint33_linear_3_1516)"/>
<rect x="316.652" y="310.412" width="40.4741" height="194.522" rx="20.237" fill="url(#paint34_linear_3_1516)"/>
<rect x="397.112" y="462.015" width="50.5701" height="15.56" rx="7.78002" transform="rotate(-37.1219 397.112 462.015)" fill="#6A171F"/>
<circle cx="408.011" cy="463.523" r="7.78002" transform="rotate(-37.1219 408.011 463.523)" fill="#A04252"/>
<circle cx="408.011" cy="463.523" r="6.61302" transform="rotate(-37.1219 408.011 463.523)" stroke="#6A171F" stroke-width="0.259334"/>
<circle cx="407.933" cy="463.419" r="4.14934" transform="rotate(-37.1219 407.933 463.419)" stroke="#6A171F" stroke-width="0.259334"/>
<circle cx="408.102" cy="463.535" r="1.49117" transform="rotate(-37.1219 408.102 463.535)" stroke="#6A171F" stroke-width="0.259334"/>
<path d="M410.85 454.381L417.246 449.54" stroke="#A04252" stroke-width="0.389001" stroke-linecap="round"/>
<path d="M418.563 448.543L424.959 443.702" stroke="#A04252" stroke-width="0.389001" stroke-linecap="round"/>
<path d="M427.404 441.851L433.801 437.01" stroke="#A04252" stroke-width="0.389001" stroke-linecap="round"/>
<path d="M421.949 449.558L437.281 437.953" stroke="#A04252" stroke-width="0.389001" stroke-linecap="round"/>
<path d="M413.86 455.681L416.588 453.616" stroke="#A04252" stroke-width="0.389001" stroke-linecap="round"/>
<path d="M424.264 454.961L439.596 443.356" stroke="#A04252" stroke-width="0.389001" stroke-linecap="round"/>
<path d="M416.833 460.586L422.289 456.456" stroke="#A04252" stroke-width="0.389001" stroke-linecap="round"/>
<path d="M416.877 456.974L432.21 445.369" stroke="#A04252" stroke-width="0.389001" stroke-linecap="round"/>
<path d="M434.185 443.874L436.913 441.81" stroke="#A04252" stroke-width="0.389001" stroke-linecap="round"/>
<path d="M438.794 440.386L439.829 439.603" stroke="#A04252" stroke-width="0.389001" stroke-linecap="round"/>
<path d="M417.426 463.715L432.728 452.133" stroke="#A04252" stroke-width="0.389001" stroke-linecap="round"/>
<rect x="363.258" y="336.063" width="179.294" height="55.1674" rx="27.5837" transform="rotate(66.161 363.258 336.063)" fill="#6A171F"/>
<circle cx="349.176" cy="372.442" r="27.5837" transform="rotate(66.161 349.176 372.442)" fill="#A04252"/>
<circle cx="349.176" cy="372.442" r="23.4461" transform="rotate(66.161 349.176 372.442)" stroke="#6A171F" stroke-width="0.919457"/>
<circle cx="349.596" cy="372.256" r="14.7113" transform="rotate(66.161 349.596 372.256)" stroke="#6A171F" stroke-width="0.919457"/>
<circle cx="349.058" cy="372.745" r="5.28688" transform="rotate(66.161 349.058 372.745)" stroke="#6A171F" stroke-width="0.919457"/>
<path d="M378.406 389.683L389.901 415.697" stroke="#A04252" stroke-width="1.37919" stroke-linecap="round"/>
<path d="M392.267 421.053L403.762 447.068" stroke="#A04252" stroke-width="1.37919" stroke-linecap="round"/>
<path d="M408.158 457.014L419.652 483.029" stroke="#A04252" stroke-width="1.37919" stroke-linecap="round"/>
<path d="M386.009 431.913L413.563 494.272" stroke="#A04252" stroke-width="1.37919" stroke-linecap="round"/>
<path d="M371.471 399.012L376.373 410.107" stroke="#A04252" stroke-width="1.37919" stroke-linecap="round"/>
<path d="M365.478 435.498L393.032 497.856" stroke="#A04252" stroke-width="1.37919" stroke-linecap="round"/>
<path d="M352.124 405.275L361.928 427.464" stroke="#A04252" stroke-width="1.37919" stroke-linecap="round"/>
<path d="M364.549 408.371L392.103 470.729" stroke="#A04252" stroke-width="1.37919" stroke-linecap="round"/>
<path d="M395.653 478.763L400.555 489.857" stroke="#A04252" stroke-width="1.37919" stroke-linecap="round"/>
<path d="M403.936 497.509L405.795 501.717" stroke="#A04252" stroke-width="1.37919" stroke-linecap="round"/>
<path d="M340.844 404.772L368.344 467.007" stroke="#A04252" stroke-width="1.37919" stroke-linecap="round"/>
<path d="M374.289 480.463L384.88 504.432" stroke="#A04252" stroke-width="1.37919" stroke-linecap="round"/>
<g filter="url(#filter7_f_3_1516)" style="mix-blend-mode:exclusion">
<path d="M94.155 605.426C12.3398 589.76 53.3748 550.818 84.1192 533.306C236.089 455.454 406.219 486.499 501.319 487.932C596.42 489.365 608.367 541.425 626.527 576.291C644.687 611.157 539.073 614.023 510.877 630.262C482.682 646.501 403.351 675.636 345.049 630.262C286.746 584.888 196.424 625.008 94.155 605.426Z" fill="url(#paint35_linear_3_1516)" fill-opacity="0.44"/>
</g>
<g filter="url(#filter8_f_3_1516)" style="mix-blend-mode:soft-light">
<path d="M163.349 570.029C104.808 558.807 134.169 530.91 156.168 518.365C264.906 462.595 386.639 484.834 454.686 485.861C522.733 486.887 531.281 524.181 544.275 549.158C557.269 574.135 481.699 576.188 461.525 587.821C441.35 599.454 384.587 620.325 342.87 587.821C301.152 555.317 236.525 584.057 163.349 570.029Z" fill="#0A0040" fill-opacity="0.29"/>
</g>
<rect x="208.225" y="491.319" width="50.5701" height="15.56" rx="7.78002" transform="rotate(-79.2333 208.225 491.319)" fill="#6A171F"/>
<circle cx="217.322" cy="485.13" r="7.78002" transform="rotate(-79.2333 217.322 485.13)" fill="#A04252"/>
<circle cx="217.322" cy="485.13" r="6.61302" transform="rotate(-79.2333 217.322 485.13)" stroke="#6A171F" stroke-width="0.259334"/>
<circle cx="217.194" cy="485.106" r="4.14934" transform="rotate(-79.2333 217.194 485.106)" stroke="#6A171F" stroke-width="0.259334"/>
<circle cx="217.397" cy="485.078" r="1.49117" transform="rotate(-79.2333 217.397 485.078)" stroke="#6A171F" stroke-width="0.259334"/>
<path d="M213.298 476.445L214.796 468.565" stroke="#A04252" stroke-width="0.389001" stroke-linecap="round"/>
<path d="M215.105 466.942L216.603 459.062" stroke="#A04252" stroke-width="0.389001" stroke-linecap="round"/>
<path d="M217.176 456.048L218.675 448.168" stroke="#A04252" stroke-width="0.389001" stroke-linecap="round"/>
<path d="M218.297 465.423L221.889 446.533" stroke="#A04252" stroke-width="0.389001" stroke-linecap="round"/>
<path d="M216.402 475.39L217.041 472.029" stroke="#A04252" stroke-width="0.389001" stroke-linecap="round"/>
<path d="M223.638 467.88L227.23 448.99" stroke="#A04252" stroke-width="0.389001" stroke-linecap="round"/>
<path d="M221.897 477.035L223.175 470.314" stroke="#A04252" stroke-width="0.389001" stroke-linecap="round"/>
<path d="M219.508 474.326L223.1 455.436" stroke="#A04252" stroke-width="0.389001" stroke-linecap="round"/>
<path d="M223.563 453.002L224.202 449.642" stroke="#A04252" stroke-width="0.389001" stroke-linecap="round"/>
<path d="M224.643 447.324L224.885 446.049" stroke="#A04252" stroke-width="0.389001" stroke-linecap="round"/>
<path d="M224.435 478.959L228.02 460.106" stroke="#A04252" stroke-width="0.389001" stroke-linecap="round"/>
<rect x="176.258" y="462.488" width="179.294" height="55.1674" rx="27.5837" fill="#6A171F"/>
<circle cx="203.841" cy="490.072" r="27.5837" fill="#A04252"/>
<circle cx="203.841" cy="490.072" r="23.4461" stroke="#6A171F" stroke-width="0.919457"/>
<circle cx="203.841" cy="489.612" r="14.7113" stroke="#6A171F" stroke-width="0.919457"/>
<circle cx="204.071" cy="490.302" r="5.28688" stroke="#6A171F" stroke-width="0.919457"/>
<path d="M231.425 470.304H259.866" stroke="#A04252" stroke-width="1.37919" stroke-linecap="round"/>
<path d="M265.721 470.304H294.162" stroke="#A04252" stroke-width="1.37919" stroke-linecap="round"/>
<path d="M305.037 470.304H333.478" stroke="#A04252" stroke-width="1.37919" stroke-linecap="round"/>
<path d="M273.125 480.418H341.3" stroke="#A04252" stroke-width="1.37919" stroke-linecap="round"/>
<path d="M237.156 480.418H249.285" stroke="#A04252" stroke-width="1.37919" stroke-linecap="round"/>
<path d="M268.106 500.646H336.281" stroke="#A04252" stroke-width="1.37919" stroke-linecap="round"/>
<path d="M235.065 500.646H259.323" stroke="#A04252" stroke-width="1.37919" stroke-linecap="round"/>
<path d="M242.918 490.532H311.093" stroke="#A04252" stroke-width="1.37919" stroke-linecap="round"/>
<path d="M319.876 490.532H332.005" stroke="#A04252" stroke-width="1.37919" stroke-linecap="round"/>
<path d="M340.37 490.532L344.971 490.532" stroke="#A04252" stroke-width="1.37919" stroke-linecap="round"/>
<path d="M230.046 510.76H298.086" stroke="#A04252" stroke-width="1.37919" stroke-linecap="round"/>
<path d="M312.797 510.76L339.001 510.76" stroke="#A04252" stroke-width="1.37919" stroke-linecap="round"/>
<rect x="301.304" y="504.066" width="179.294" height="55.1674" rx="27.5837" transform="rotate(-17.2174 301.304 504.066)" fill="#6A171F"/>
<circle cx="335.816" cy="522.249" r="27.5837" transform="rotate(-17.2174 335.816 522.249)" fill="#A04252"/>
<circle cx="335.816" cy="522.248" r="23.4461" transform="rotate(-17.2174 335.816 522.248)" stroke="#6A171F" stroke-width="0.919457"/>
<circle cx="335.68" cy="521.809" r="14.7113" transform="rotate(-17.2174 335.68 521.809)" stroke="#6A171F" stroke-width="0.919457"/>
<circle cx="336.104" cy="522.4" r="5.28688" transform="rotate(-17.2174 336.104 522.4)" stroke="#6A171F" stroke-width="0.919457"/>
<path d="M356.312 495.201L383.479 486.783" stroke="#A04252" stroke-width="1.37919" stroke-linecap="round"/>
<path d="M389.072 485.05L416.238 476.631" stroke="#A04252" stroke-width="1.37919" stroke-linecap="round"/>
<path d="M426.626 473.412L453.792 464.994" stroke="#A04252" stroke-width="1.37919" stroke-linecap="round"/>
<path d="M399.138 492.519L464.258 472.339" stroke="#A04252" stroke-width="1.37919" stroke-linecap="round"/>
<path d="M364.78 503.166L376.366 499.575" stroke="#A04252" stroke-width="1.37919" stroke-linecap="round"/>
<path d="M400.331 513.326L465.451 493.146" stroke="#A04252" stroke-width="1.37919" stroke-linecap="round"/>
<path d="M368.77 523.106L391.942 515.926" stroke="#A04252" stroke-width="1.37919" stroke-linecap="round"/>
<path d="M373.278 511.121L438.398 490.941" stroke="#A04252" stroke-width="1.37919" stroke-linecap="round"/>
<path d="M446.787 488.342L458.373 484.751" stroke="#A04252" stroke-width="1.37919" stroke-linecap="round"/>
<path d="M466.363 482.275L470.758 480.914" stroke="#A04252" stroke-width="1.37919" stroke-linecap="round"/>
<path d="M366.97 534.253L431.961 514.113" stroke="#A04252" stroke-width="1.37919" stroke-linecap="round"/>
<path d="M446.013 509.758L471.043 502.002" stroke="#A04252" stroke-width="1.37919" stroke-linecap="round"/>
<rect x="379.29" y="427.454" width="179.294" height="55.1674" rx="27.5837" transform="rotate(132.97 379.29 427.454)" fill="#6A171F"/>
<circle cx="340.305" cy="428.836" r="27.5837" transform="rotate(132.97 340.305 428.836)" fill="#A04252"/>
<circle cx="340.305" cy="428.836" r="23.4461" transform="rotate(132.97 340.305 428.836)" stroke="#6A171F" stroke-width="0.919457"/>
<circle cx="340.642" cy="429.149" r="14.7113" transform="rotate(132.97 340.642 429.149)" stroke="#6A171F" stroke-width="0.919457"/>
<circle cx="339.98" cy="428.847" r="5.28688" transform="rotate(132.97 339.98 428.847)" stroke="#6A171F" stroke-width="0.919457"/>
<path d="M335.969 462.494L316.583 483.304" stroke="#A04252" stroke-width="1.37919" stroke-linecap="round"/>
<path d="M312.592 487.589L293.206 508.399" stroke="#A04252" stroke-width="1.37919" stroke-linecap="round"/>
<path d="M285.794 516.356L266.408 537.167" stroke="#A04252" stroke-width="1.37919" stroke-linecap="round"/>
<path d="M300.144 486.112L253.676 535.996" stroke="#A04252" stroke-width="1.37919" stroke-linecap="round"/>
<path d="M324.662 459.793L316.394 468.668" stroke="#A04252" stroke-width="1.37919" stroke-linecap="round"/>
<path d="M288.764 468.652L242.295 518.536" stroke="#A04252" stroke-width="1.37919" stroke-linecap="round"/>
<path d="M311.286 444.475L294.751 462.225" stroke="#A04252" stroke-width="1.37919" stroke-linecap="round"/>
<path d="M313.334 457.116L266.865 507" stroke="#A04252" stroke-width="1.37919" stroke-linecap="round"/>
<path d="M260.878 513.426L252.61 522.301" stroke="#A04252" stroke-width="1.37919" stroke-linecap="round"/>
<path d="M246.909 528.422L243.773 531.789" stroke="#A04252" stroke-width="1.37919" stroke-linecap="round"/>
<path d="M307.307 433.909L260.93 483.694" stroke="#A04252" stroke-width="1.37919" stroke-linecap="round"/>
<path d="M250.902 494.459L233.041 513.633" stroke="#A04252" stroke-width="1.37919" stroke-linecap="round"/>
<g filter="url(#filter9_f_3_1516)">
<rect x="320.368" y="442.219" width="37.9444" height="46.3464" rx="18.9722" fill="url(#paint36_linear_3_1516)"/>
<rect x="358.312" y="395.255" width="37.9444" height="93.3107" rx="18.9722" fill="url(#paint37_linear_3_1516)"/>
<rect x="396.257" y="459.83" width="37.9444" height="28.7348" rx="14.3674" fill="url(#paint38_linear_3_1516)"/>
</g>
<rect x="320.368" y="427.396" width="37.9444" height="61.1691" rx="18.9722" fill="#ECECEC"/>
<rect x="358.313" y="416.51" width="37.9444" height="72.0551" rx="18.9722" fill="#ECECEC"/>
<rect x="396.257" y="439.837" width="37.9444" height="48.7279" rx="18.9722" fill="#ECECEC"/>
<rect x="353.74" y="434.033" width="179.294" height="55.1674" rx="27.5837" transform="rotate(28.8842 353.74 434.033)" fill="#6A171F"/>
<circle cx="364.568" cy="471.509" r="27.5837" transform="rotate(28.8842 364.568 471.509)" fill="#A04252"/>
<circle cx="364.569" cy="471.509" r="23.4461" transform="rotate(28.8842 364.569 471.509)" stroke="#6A171F" stroke-width="0.919457"/>
<circle cx="364.791" cy="471.106" r="14.7113" transform="rotate(28.8842 364.791 471.106)" stroke="#6A171F" stroke-width="0.919457"/>
<circle cx="364.659" cy="471.821" r="5.28688" transform="rotate(28.8842 364.659 471.821)" stroke="#6A171F" stroke-width="0.919457"/>
<path d="M398.27 467.524L423.172 481.262" stroke="#A04252" stroke-width="1.37919" stroke-linecap="round"/>
<path d="M428.299 484.091L453.202 497.829" stroke="#A04252" stroke-width="1.37919" stroke-linecap="round"/>
<path d="M462.724 503.082L487.627 516.82" stroke="#A04252" stroke-width="1.37919" stroke-linecap="round"/>
<path d="M429.897 496.523L489.59 529.454" stroke="#A04252" stroke-width="1.37919" stroke-linecap="round"/>
<path d="M398.402 479.148L409.023 485.007" stroke="#A04252" stroke-width="1.37919" stroke-linecap="round"/>
<path d="M415.731 511.81L475.425 544.741" stroke="#A04252" stroke-width="1.37919" stroke-linecap="round"/>
<path d="M386.8 495.85L408.041 507.567" stroke="#A04252" stroke-width="1.37919" stroke-linecap="round"/>
<path d="M398.562 490.787L458.256 523.718" stroke="#A04252" stroke-width="1.37919" stroke-linecap="round"/>
<path d="M465.946 527.961L476.567 533.82" stroke="#A04252" stroke-width="1.37919" stroke-linecap="round"/>
<path d="M483.891 537.861L487.919 540.083" stroke="#A04252" stroke-width="1.37919" stroke-linecap="round"/>
<path d="M377.52 502.281L437.095 535.147" stroke="#A04252" stroke-width="1.37919" stroke-linecap="round"/>
<path d="M449.977 542.253L472.921 554.911" stroke="#A04252" stroke-width="1.37919" stroke-linecap="round"/>
<g filter="url(#filter10_f_3_1516)">
<rect x="328.662" y="463.51" width="36.8051" height="40.0882" rx="18.4026" fill="#FDAC1E"/>
<rect x="365.467" y="443.466" width="36.8051" height="60.1323" rx="18.4026" fill="#FDAC1E"/>
<rect x="402.272" y="478.744" width="36.8051" height="24.8547" rx="12.4274" fill="#FDAC1E"/>
</g>
<rect x="297.187" y="556.356" width="50.5701" height="15.56" rx="7.78002" transform="rotate(-141.381 297.187 556.356)" fill="#6A171F"/>
<circle cx="295.965" cy="545.421" r="7.78002" transform="rotate(-141.381 295.965 545.421)" fill="#A04252"/>
<circle cx="295.965" cy="545.421" r="6.61302" transform="rotate(-141.381 295.965 545.421)" stroke="#6A171F" stroke-width="0.259334"/>
<circle cx="295.884" cy="545.523" r="4.14934" transform="rotate(-141.381 295.884 545.523)" stroke="#6A171F" stroke-width="0.259334"/>
<circle cx="295.954" cy="545.33" r="1.49117" transform="rotate(-141.381 295.954 545.33)" stroke="#6A171F" stroke-width="0.259334"/>
<path d="M286.406 544.922L280.138 539.915" stroke="#A04252" stroke-width="0.389001" stroke-linecap="round"/>
<path d="M278.848 538.884L272.581 533.877" stroke="#A04252" stroke-width="0.389001" stroke-linecap="round"/>
<path d="M270.184 531.963L263.917 526.956" stroke="#A04252" stroke-width="0.389001" stroke-linecap="round"/>
<path d="M278.997 535.352L263.973 523.35" stroke="#A04252" stroke-width="0.389001" stroke-linecap="round"/>
<path d="M286.923 541.684L284.251 539.549" stroke="#A04252" stroke-width="0.389001" stroke-linecap="round"/>
<path d="M283.664 531.778L268.64 519.776" stroke="#A04252" stroke-width="0.389001" stroke-linecap="round"/>
<path d="M290.945 537.595L285.599 533.324" stroke="#A04252" stroke-width="0.389001" stroke-linecap="round"/>
<path d="M287.434 538.441L272.411 526.439" stroke="#A04252" stroke-width="0.389001" stroke-linecap="round"/>
<path d="M270.475 524.893L267.802 522.758" stroke="#A04252" stroke-width="0.389001" stroke-linecap="round"/>
<path d="M265.959 521.285L264.945 520.475" stroke="#A04252" stroke-width="0.389001" stroke-linecap="round"/>
<path d="M293.832 536.249L278.838 524.272" stroke="#A04252" stroke-width="0.389001" stroke-linecap="round"/>
<rect x="479.392" y="562.497" width="50.5701" height="15.56" rx="7.78002" transform="rotate(-7.74132 479.392 562.497)" fill="#6A171F"/>
<circle cx="488.149" cy="569.158" r="7.78002" transform="rotate(-7.74132 488.149 569.158)" fill="#A04252"/>
<circle cx="488.149" cy="569.158" r="6.61302" transform="rotate(-7.74132 488.149 569.158)" stroke="#6A171F" stroke-width="0.259334"/>
<circle cx="488.131" cy="569.03" r="4.14934" transform="rotate(-7.74132 488.131 569.03)" stroke="#6A171F" stroke-width="0.259334"/>
<circle cx="488.222" cy="569.214" r="1.49117" transform="rotate(-7.74132 488.222 569.214)" stroke="#6A171F" stroke-width="0.259334"/>
<path d="M495.107 562.585L503.055 561.505" stroke="#A04252" stroke-width="0.389001" stroke-linecap="round"/>
<path d="M504.692 561.282L512.64 560.202" stroke="#A04252" stroke-width="0.389001" stroke-linecap="round"/>
<path d="M515.68 559.788L523.628 558.708" stroke="#A04252" stroke-width="0.389001" stroke-linecap="round"/>
<path d="M507.145 563.828L526.199 561.237" stroke="#A04252" stroke-width="0.389001" stroke-linecap="round"/>
<path d="M497.093 565.194L500.482 564.733" stroke="#A04252" stroke-width="0.389001" stroke-linecap="round"/>
<path d="M506.511 569.672L525.565 567.081" stroke="#A04252" stroke-width="0.389001" stroke-linecap="round"/>
<path d="M497.277 570.927L504.056 570.005" stroke="#A04252" stroke-width="0.389001" stroke-linecap="round"/>
<path d="M499.087 567.802L518.141 565.212" stroke="#A04252" stroke-width="0.389001" stroke-linecap="round"/>
<path d="M520.595 564.878L523.985 564.417" stroke="#A04252" stroke-width="0.389001" stroke-linecap="round"/>
<path d="M526.323 564.099L527.609 563.924" stroke="#A04252" stroke-width="0.389001" stroke-linecap="round"/>
<path d="M496.258 573.944L515.274 571.359" stroke="#A04252" stroke-width="0.389001" stroke-linecap="round"/>
<defs>
<filter id="filter0_f_3_1516" x="130.219" y="310.006" width="170.497" height="260.64" filterUnits="userSpaceOnUse" color-interpolation-filters="sRGB">
<feFlood flood-opacity="0" result="BackgroundImageFix"/>
<feBlend mode="normal" in="SourceGraphic" in2="BackgroundImageFix" result="shape"/>
<feGaussianBlur stdDeviation="32.5057" result="effect1_foregroundBlur_3_1516"/>
</filter>
<filter id="filter1_f_3_1516" x="170.693" y="256.251" width="170.497" height="314.394" filterUnits="userSpaceOnUse" color-interpolation-filters="sRGB">
<feFlood flood-opacity="0" result="BackgroundImageFix"/>
<feBlend mode="normal" in="SourceGraphic" in2="BackgroundImageFix" result="shape"/>
<feGaussianBlur stdDeviation="32.5057" result="effect1_foregroundBlur_3_1516"/>
</filter>
<filter id="filter2_f_3_1516" x="211.167" y="214.513" width="170.497" height="356.033" filterUnits="userSpaceOnUse" color-interpolation-filters="sRGB">
<feFlood flood-opacity="0" result="BackgroundImageFix"/>
<feBlend mode="normal" in="SourceGraphic" in2="BackgroundImageFix" result="shape"/>
<feGaussianBlur stdDeviation="32.5057" result="effect1_foregroundBlur_3_1516"/>
</filter>
<filter id="filter3_f_3_1516" x="373.063" y="272.694" width="170.497" height="297.913" filterUnits="userSpaceOnUse" color-interpolation-filters="sRGB">
<feFlood flood-opacity="0" result="BackgroundImageFix"/>
<feBlend mode="normal" in="SourceGraphic" in2="BackgroundImageFix" result="shape"/>
<feGaussianBlur stdDeviation="32.5057" result="effect1_foregroundBlur_3_1516"/>
</filter>
<filter id="filter4_f_3_1516" x="332.589" y="232.852" width="170.497" height="337.712" filterUnits="userSpaceOnUse" color-interpolation-filters="sRGB">
<feFlood flood-opacity="0" result="BackgroundImageFix"/>
<feBlend mode="normal" in="SourceGraphic" in2="BackgroundImageFix" result="shape"/>
<feGaussianBlur stdDeviation="32.5057" result="effect1_foregroundBlur_3_1516"/>
</filter>
<filter id="filter5_f_3_1516" x="292.115" y="177.833" width="170.497" height="392.674" filterUnits="userSpaceOnUse" color-interpolation-filters="sRGB">
<feFlood flood-opacity="0" result="BackgroundImageFix"/>
<feBlend mode="normal" in="SourceGraphic" in2="BackgroundImageFix" result="shape"/>
<feGaussianBlur stdDeviation="32.5057" result="effect1_foregroundBlur_3_1516"/>
</filter>
<filter id="filter6_f_3_1516" x="251.641" y="124.078" width="170.497" height="446.372" filterUnits="userSpaceOnUse" color-interpolation-filters="sRGB">
<feFlood flood-opacity="0" result="BackgroundImageFix"/>
<feBlend mode="normal" in="SourceGraphic" in2="BackgroundImageFix" result="shape"/>
<feGaussianBlur stdDeviation="32.5057" result="effect1_foregroundBlur_3_1516"/>
</filter>
<filter id="filter7_f_3_1516" x="25.9287" y="460.393" width="622.921" height="214.386" filterUnits="userSpaceOnUse" color-interpolation-filters="sRGB">
<feFlood flood-opacity="0" result="BackgroundImageFix"/>
<feBlend mode="normal" in="SourceGraphic" in2="BackgroundImageFix" result="shape"/>
<feGaussianBlur stdDeviation="10.1185" result="effect1_foregroundBlur_3_1516"/>
</filter>
<filter id="filter8_f_3_1516" x="122.687" y="474.306" width="429.405" height="137.232" filterUnits="userSpaceOnUse" color-interpolation-filters="sRGB">
<feFlood flood-opacity="0" result="BackgroundImageFix"/>
<feBlend mode="normal" in="SourceGraphic" in2="BackgroundImageFix" result="shape"/>
<feGaussianBlur stdDeviation="3.16204" result="effect1_foregroundBlur_3_1516"/>
</filter>
<filter id="filter9_f_3_1516" x="216.691" y="291.578" width="321.186" height="300.664" filterUnits="userSpaceOnUse" color-interpolation-filters="sRGB">
<feFlood flood-opacity="0" result="BackgroundImageFix"/>
<feBlend mode="normal" in="SourceGraphic" in2="BackgroundImageFix" result="shape"/>
<feGaussianBlur stdDeviation="51.8382" result="effect1_foregroundBlur_3_1516"/>
</filter>
<filter id="filter10_f_3_1516" x="224.986" y="339.79" width="317.768" height="267.485" filterUnits="userSpaceOnUse" color-interpolation-filters="sRGB">
<feFlood flood-opacity="0" result="BackgroundImageFix"/>
<feBlend mode="normal" in="SourceGraphic" in2="BackgroundImageFix" result="shape"/>
<feGaussianBlur stdDeviation="51.8382" result="effect1_foregroundBlur_3_1516"/>
</filter>
<linearGradient id="paint0_linear_3_1516" x1="215.467" y1="375.018" x2="215.467" y2="505.634" gradientUnits="userSpaceOnUse">
<stop stop-color="#F32E00"/>
<stop offset="0.65" stop-color="#F3AF00"/>
<stop offset="1" stop-color="#FFEAB4"/>
</linearGradient>
<linearGradient id="paint1_linear_3_1516" x1="215.467" y1="375.018" x2="215.467" y2="505.634" gradientUnits="userSpaceOnUse">
<stop stop-color="#F32E00"/>
<stop offset="1" stop-color="#F3AF00"/>
</linearGradient>
<linearGradient id="paint2_linear_3_1516" x1="215.467" y1="389.426" x2="215.467" y2="505.634" gradientUnits="userSpaceOnUse">
<stop stop-color="#FDAC1E"/>
<stop offset="1" stop-color="#FEE372"/>
</linearGradient>
<linearGradient id="paint3_linear_3_1516" x1="215.467" y1="408.668" x2="215.467" y2="505.426" gradientUnits="userSpaceOnUse">
<stop stop-color="#FEE372"/>
<stop offset="1" stop-color="#FBF3D1"/>
</linearGradient>
<linearGradient id="paint4_linear_3_1516" x1="215.467" y1="425.11" x2="215.467" y2="505.426" gradientUnits="userSpaceOnUse">
<stop stop-color="#FBF3D1"/>
<stop offset="1" stop-color="white"/>
</linearGradient>
<linearGradient id="paint5_linear_3_1516" x1="255.941" y1="321.263" x2="255.941" y2="505.634" gradientUnits="userSpaceOnUse">
<stop stop-color="#F32E00"/>
<stop offset="0.65" stop-color="#F3AF00"/>
<stop offset="1" stop-color="#FFEAB4"/>
</linearGradient>
<linearGradient id="paint6_linear_3_1516" x1="255.941" y1="321.263" x2="255.941" y2="505.634" gradientUnits="userSpaceOnUse">
<stop stop-color="#F32E00"/>
<stop offset="1" stop-color="#F3AF00"/>
</linearGradient>
<linearGradient id="paint7_linear_3_1516" x1="255.941" y1="341.6" x2="255.941" y2="505.634" gradientUnits="userSpaceOnUse">
<stop stop-color="#FDAC1E"/>
<stop offset="1" stop-color="#FEE372"/>
</linearGradient>
<linearGradient id="paint8_linear_3_1516" x1="255.941" y1="368.762" x2="255.941" y2="505.34" gradientUnits="userSpaceOnUse">
<stop stop-color="#FEE372"/>
<stop offset="1" stop-color="#FBF3D1"/>
</linearGradient>
<linearGradient id="paint9_linear_3_1516" x1="255.941" y1="391.971" x2="255.941" y2="505.34" gradientUnits="userSpaceOnUse">
<stop stop-color="#FBF3D1"/>
<stop offset="1" stop-color="white"/>
</linearGradient>
<linearGradient id="paint10_linear_3_1516" x1="296.415" y1="279.524" x2="296.415" y2="505.534" gradientUnits="userSpaceOnUse">
<stop stop-color="#F32E00"/>
<stop offset="0.65" stop-color="#F3AF00"/>
<stop offset="1" stop-color="#FFEAB4"/>
</linearGradient>
<linearGradient id="paint11_linear_3_1516" x1="296.415" y1="279.524" x2="296.415" y2="505.534" gradientUnits="userSpaceOnUse">
<stop stop-color="#F32E00"/>
<stop offset="1" stop-color="#F3AF00"/>
</linearGradient>
<linearGradient id="paint12_linear_3_1516" x1="296.415" y1="304.692" x2="296.415" y2="505.772" gradientUnits="userSpaceOnUse">
<stop stop-color="#FDAC1E"/>
<stop offset="1" stop-color="#FEE372"/>
</linearGradient>
<linearGradient id="paint13_linear_3_1516" x1="296.415" y1="337.75" x2="296.415" y2="505.173" gradientUnits="userSpaceOnUse">
<stop stop-color="#FEE372"/>
<stop offset="1" stop-color="#FBF3D1"/>
</linearGradient>
<linearGradient id="paint14_linear_3_1516" x1="296.415" y1="366.201" x2="296.415" y2="505.173" gradientUnits="userSpaceOnUse">
<stop stop-color="#FBF3D1"/>
<stop offset="1" stop-color="white"/>
</linearGradient>
<linearGradient id="paint15_linear_3_1516" x1="458.312" y1="337.706" x2="458.312" y2="505.595" gradientUnits="userSpaceOnUse">
<stop stop-color="#F32E00"/>
<stop offset="0.65" stop-color="#F3AF00"/>
<stop offset="1" stop-color="#FFEAB4"/>
</linearGradient>
<linearGradient id="paint16_linear_3_1516" x1="458.312" y1="337.706" x2="458.312" y2="505.595" gradientUnits="userSpaceOnUse">
<stop stop-color="#F32E00"/>
<stop offset="1" stop-color="#F3AF00"/>
</linearGradient>
<linearGradient id="paint17_linear_3_1516" x1="458.312" y1="356.402" x2="458.312" y2="505.772" gradientUnits="userSpaceOnUse">
<stop stop-color="#FDAC1E"/>
<stop offset="1" stop-color="#FEE372"/>
</linearGradient>
<linearGradient id="paint18_linear_3_1516" x1="458.312" y1="380.958" x2="458.312" y2="505.327" gradientUnits="userSpaceOnUse">
<stop stop-color="#FEE372"/>
<stop offset="1" stop-color="#FBF3D1"/>
</linearGradient>
<linearGradient id="paint19_linear_3_1516" x1="458.312" y1="402.093" x2="458.312" y2="505.327" gradientUnits="userSpaceOnUse">
<stop stop-color="#FBF3D1"/>
<stop offset="1" stop-color="white"/>
</linearGradient>
<linearGradient id="paint20_linear_3_1516" x1="417.837" y1="297.864" x2="417.837" y2="505.553" gradientUnits="userSpaceOnUse">
<stop stop-color="#F32E00"/>
<stop offset="0.65" stop-color="#F3AF00"/>
<stop offset="1" stop-color="#FFEAB4"/>
</linearGradient>
<linearGradient id="paint21_linear_3_1516" x1="417.837" y1="297.864" x2="417.837" y2="505.553" gradientUnits="userSpaceOnUse">
<stop stop-color="#F32E00"/>
<stop offset="1" stop-color="#F3AF00"/>
</linearGradient>
<linearGradient id="paint22_linear_3_1516" x1="417.837" y1="320.992" x2="417.837" y2="505.772" gradientUnits="userSpaceOnUse">
<stop stop-color="#FDAC1E"/>
<stop offset="1" stop-color="#FEE372"/>
</linearGradient>
<linearGradient id="paint23_linear_3_1516" x1="417.837" y1="351.37" x2="417.837" y2="505.222" gradientUnits="userSpaceOnUse">
<stop stop-color="#FEE372"/>
<stop offset="1" stop-color="#FBF3D1"/>
</linearGradient>
<linearGradient id="paint24_linear_3_1516" x1="417.837" y1="377.515" x2="417.837" y2="505.222" gradientUnits="userSpaceOnUse">
<stop stop-color="#FBF3D1"/>
<stop offset="1" stop-color="white"/>
</linearGradient>
<linearGradient id="paint25_linear_3_1516" x1="377.363" y1="242.844" x2="377.363" y2="505.495" gradientUnits="userSpaceOnUse">
<stop stop-color="#F32E00"/>
<stop offset="0.65" stop-color="#F3AF00"/>
<stop offset="1" stop-color="#FFEAB4"/>
</linearGradient>
<linearGradient id="paint26_linear_3_1516" x1="377.363" y1="242.844" x2="377.363" y2="505.495" gradientUnits="userSpaceOnUse">
<stop stop-color="#F32E00"/>
<stop offset="1" stop-color="#F3AF00"/>
</linearGradient>
<linearGradient id="paint27_linear_3_1516" x1="377.363" y1="272.093" x2="377.363" y2="505.772" gradientUnits="userSpaceOnUse">
<stop stop-color="#FDAC1E"/>
<stop offset="1" stop-color="#FEE372"/>
</linearGradient>
<linearGradient id="paint28_linear_3_1516" x1="377.363" y1="310.51" x2="377.363" y2="505.076" gradientUnits="userSpaceOnUse">
<stop stop-color="#FEE372"/>
<stop offset="1" stop-color="#FBF3D1"/>
</linearGradient>
<linearGradient id="paint29_linear_3_1516" x1="377.363" y1="343.573" x2="377.363" y2="505.076" gradientUnits="userSpaceOnUse">
<stop stop-color="#FBF3D1"/>
<stop offset="1" stop-color="white"/>
</linearGradient>
<linearGradient id="paint30_linear_3_1516" x1="336.889" y1="189.09" x2="336.889" y2="505.439" gradientUnits="userSpaceOnUse">
<stop stop-color="#F32E00"/>
<stop offset="0.65" stop-color="#F3AF00"/>
<stop offset="1" stop-color="#FFEAB4"/>
</linearGradient>
<linearGradient id="paint31_linear_3_1516" x1="336.889" y1="189.09" x2="336.889" y2="505.439" gradientUnits="userSpaceOnUse">
<stop stop-color="#F32E00"/>
<stop offset="1" stop-color="#F3AF00"/>
</linearGradient>
<linearGradient id="paint32_linear_3_1516" x1="336.889" y1="224.318" x2="336.889" y2="505.772" gradientUnits="userSpaceOnUse">
<stop stop-color="#FDAC1E"/>
<stop offset="1" stop-color="#FEE372"/>
</linearGradient>
<linearGradient id="paint33_linear_3_1516" x1="336.889" y1="270.589" x2="336.889" y2="504.934" gradientUnits="userSpaceOnUse">
<stop stop-color="#FEE372"/>
<stop offset="1" stop-color="#FBF3D1"/>
</linearGradient>
<linearGradient id="paint34_linear_3_1516" x1="336.889" y1="310.412" x2="336.889" y2="504.934" gradientUnits="userSpaceOnUse">
<stop stop-color="#FBF3D1"/>
<stop offset="1" stop-color="white"/>
</linearGradient>
<linearGradient id="paint35_linear_3_1516" x1="337.706" y1="470.827" x2="337.381" y2="654.542" gradientUnits="userSpaceOnUse">
<stop stop-color="#F99917"/>
<stop offset="1" stop-color="#E59C35" stop-opacity="0"/>
</linearGradient>
<linearGradient id="paint36_linear_3_1516" x1="339.34" y1="444.575" x2="339.34" y2="488.565" gradientUnits="userSpaceOnUse">
<stop stop-color="#F3AF00"/>
<stop offset="1" stop-color="#FFEAB4"/>
</linearGradient>
<linearGradient id="paint37_linear_3_1516" x1="377.285" y1="399.998" x2="377.285" y2="488.565" gradientUnits="userSpaceOnUse">
<stop stop-color="#F3AF00"/>
<stop offset="1" stop-color="#FFEAB4"/>
</linearGradient>
<linearGradient id="paint38_linear_3_1516" x1="415.229" y1="461.291" x2="415.229" y2="488.565" gradientUnits="userSpaceOnUse">
<stop stop-color="#F3AF00"/>
<stop offset="1" stop-color="#FFEAB4"/>
</linearGradient>
</defs>
</svg>
