<svg width="78" height="36" viewBox="0 0 78 36" fill="none" xmlns="http://www.w3.org/2000/svg">
<g filter="url(#filter0_i_3_1517)">
<g filter="url(#filter1_i_3_1517)">
<rect width="78" height="35.1" rx="17.55" fill="url(#paint0_linear_3_1517)"/>
</g>
<mask id="mask0_3_1517" style="mask-type:alpha" maskUnits="userSpaceOnUse" x="0" y="0" width="78" height="36">
<rect width="78" height="35.1" rx="17.55" fill="url(#paint1_linear_3_1517)"/>
</mask>
<g mask="url(#mask0_3_1517)">
<circle cx="53.82" cy="15.99" r="8.19" fill="url(#paint2_linear_3_1517)"/>
<path d="M-1.56006 21.2551V27.1051L1.75494 42.51C7.66994 44.6551 19.9289 49.062 21.6449 49.53C23.7899 50.1151 42.7049 53.2351 43.6799 53.625C44.4599 53.937 71.1749 44.135 84.4349 39.1951L80.1449 22.8151L62.9849 20.0851L45.8249 18.5251L39.3899 19.3051L29.4449 15.9901L-1.56006 21.2551Z" fill="url(#paint3_linear_3_1517)"/>
<path d="M16.185 25.74L8.96997 36.465L45.24 37.44L36.855 28.665H35.88L31.785 22.425H29.835L24.57 14.82L18.72 25.74H16.185Z" fill="url(#paint4_linear_3_1517)"/>
<path d="M40.7549 24.96L33.5399 35.685L69.8099 36.66L61.4249 27.885H60.4499L56.3549 21.645H54.4049L49.1399 14.04L43.2899 24.96H40.7549Z" fill="url(#paint5_linear_3_1517)"/>
<path d="M57.6718 27.5959L48.75 40.9097L93.6 42.12L83.2314 31.2269H82.0258L76.9621 23.4807H74.5508L68.0403 14.04L60.8065 27.5959H57.6718Z" fill="url(#paint6_linear_3_1517)"/>
<path d="M-1.99827 25.6459L-10.92 38.9597L33.93 40.17L23.5614 29.2769H22.3558L17.2921 21.5307H14.8808L8.37028 12.09L1.13641 25.6459H-1.99827Z" fill="url(#paint7_linear_3_1517)"/>
<path d="M15.6037 27.4886C15.6451 27.279 15.9449 27.279 15.9863 27.4886L17.9444 37.4022C17.9682 37.5228 17.876 37.635 17.7531 37.635H13.8369C13.7141 37.635 13.6218 37.5228 13.6456 37.4022L15.6037 27.4886Z" fill="url(#paint8_linear_3_1517)"/>
<path d="M12.8737 29.4385C12.9151 29.2289 13.2149 29.2289 13.2563 29.4385L15.2144 39.3522C15.2382 39.4727 15.146 39.585 15.0231 39.585H11.1069C10.9841 39.585 10.8918 39.4727 10.9156 39.3522L12.8737 29.4385Z" fill="url(#paint9_linear_3_1517)"/>
<path d="M18.7249 29.3042C18.771 29.102 19.059 29.102 19.1051 29.3042L21.3938 39.3466C21.4216 39.4687 21.3289 39.585 21.2037 39.585H16.6263C16.5011 39.585 16.4084 39.4687 16.4362 39.3466L18.7249 29.3042Z" fill="url(#paint10_linear_3_1517)"/>
<path d="M22.2349 28.1342C22.281 27.932 22.569 27.932 22.6151 28.1342L24.9038 38.1767C24.9316 38.2987 24.8389 38.415 24.7137 38.415H20.1363C20.0111 38.415 19.9184 38.2987 19.9462 38.1767L22.2349 28.1342Z" fill="url(#paint11_linear_3_1517)"/>
<path d="M24.9649 28.5242C25.0109 28.322 25.299 28.322 25.3451 28.5242L27.6338 38.5667C27.6616 38.6887 27.5688 38.805 27.4437 38.805H22.8663C22.7411 38.805 22.6484 38.6887 22.6762 38.5667L24.9649 28.5242Z" fill="url(#paint12_linear_3_1517)"/>
<path d="M27.6948 29.3042C27.7409 29.102 28.029 29.102 28.0751 29.3042L30.3638 39.3466C30.3916 39.4687 30.2988 39.585 30.1736 39.585H25.5963C25.4711 39.585 25.3783 39.4687 25.4062 39.3466L27.6948 29.3042Z" fill="url(#paint13_linear_3_1517)"/>
<path d="M30.0349 26.9642C30.081 26.762 30.3691 26.762 30.4152 26.9642L32.7039 37.0067C32.7317 37.1287 32.6389 37.245 32.5137 37.245H27.9364C27.8112 37.245 27.7184 37.1287 27.7462 37.0067L30.0349 26.9642Z" fill="url(#paint14_linear_3_1517)"/>
<path d="M33.9348 28.5242C33.9809 28.322 34.269 28.322 34.3151 28.5242L36.6038 38.5667C36.6316 38.6887 36.5388 38.805 36.4136 38.805H31.8363C31.7111 38.805 31.6183 38.6887 31.6461 38.5667L33.9348 28.5242Z" fill="url(#paint15_linear_3_1517)"/>
<path d="M37.4448 30.0842C37.4909 29.882 37.779 29.882 37.8251 30.0842L40.1138 40.1267C40.1416 40.2487 40.0488 40.365 39.9236 40.365H35.3463C35.2211 40.365 35.1283 40.2487 35.1562 40.1267L37.4448 30.0842Z" fill="url(#paint16_linear_3_1517)"/>
<path d="M40.9548 28.1342C41.0009 27.932 41.289 27.932 41.3351 28.1342L43.6238 38.1767C43.6516 38.2987 43.5588 38.415 43.4337 38.415H38.8563C38.7311 38.415 38.6383 38.2987 38.6662 38.1767L40.9548 28.1342Z" fill="url(#paint17_linear_3_1517)"/>
<path d="M43.2949 30.0842C43.341 29.882 43.6291 29.882 43.6752 30.0842L45.9639 40.1267C45.9917 40.2487 45.8989 40.365 45.7737 40.365H41.1964C41.0712 40.365 40.9784 40.2487 41.0063 40.1267L43.2949 30.0842Z" fill="url(#paint18_linear_3_1517)"/>
<path d="M45.2449 30.8643C45.291 30.662 45.579 30.662 45.6251 30.8643L47.9138 40.9067C47.9416 41.0288 47.8489 41.145 47.7237 41.145H43.1463C43.0211 41.145 42.9284 41.0288 42.9562 40.9067L45.2449 30.8643Z" fill="url(#paint19_linear_3_1517)"/>
<path d="M47.9749 28.5242C48.021 28.322 48.309 28.322 48.3551 28.5242L50.6438 38.5667C50.6716 38.6887 50.5789 38.805 50.4537 38.805H45.8763C45.7511 38.805 45.6584 38.6887 45.6862 38.5667L47.9749 28.5242Z" fill="url(#paint20_linear_3_1517)"/>
<path d="M51.0949 30.0842C51.1409 29.882 51.429 29.882 51.4751 30.0842L53.7638 40.1267C53.7916 40.2487 53.6989 40.365 53.5737 40.365H48.9963C48.8711 40.365 48.7784 40.2487 48.8062 40.1267L51.0949 30.0842Z" fill="url(#paint21_linear_3_1517)"/>
<path d="M54.2149 27.7442C54.2609 27.542 54.549 27.542 54.5951 27.7442L56.8838 37.7866C56.9116 37.9087 56.8188 38.025 56.6937 38.025H52.1163C51.9911 38.025 51.8984 37.9087 51.9262 37.7866L54.2149 27.7442Z" fill="url(#paint22_linear_3_1517)"/>
<path d="M57.3349 29.3042C57.3809 29.102 57.669 29.102 57.7151 29.3042L60.0038 39.3466C60.0316 39.4687 59.9388 39.585 59.8137 39.585H55.2363C55.1111 39.585 55.0184 39.4687 55.0462 39.3466L57.3349 29.3042Z" fill="url(#paint23_linear_3_1517)"/>
<path d="M60.4548 27.3543C60.5009 27.152 60.789 27.152 60.8351 27.3543L63.1238 37.3967C63.1516 37.5187 63.0588 37.635 62.9337 37.635H58.3563C58.2311 37.635 58.1383 37.5187 58.1662 37.3967L60.4548 27.3543Z" fill="url(#paint24_linear_3_1517)"/>
<path d="M63.5748 28.5242C63.6209 28.322 63.909 28.322 63.9551 28.5242L66.2438 38.5667C66.2716 38.6887 66.1788 38.805 66.0536 38.805H61.4763C61.3511 38.805 61.2583 38.6887 61.2862 38.5667L63.5748 28.5242Z" fill="url(#paint25_linear_3_1517)"/>
<path d="M66.6948 25.7943C66.7409 25.592 67.029 25.592 67.0751 25.7943L69.3638 35.8367C69.3916 35.9587 69.2988 36.075 69.1736 36.075H64.5963C64.4711 36.075 64.3783 35.9587 64.4062 35.8367L66.6948 25.7943Z" fill="url(#paint26_linear_3_1517)"/>
<path d="M69.8148 26.9642C69.8609 26.762 70.149 26.762 70.1951 26.9642L72.4838 37.0067C72.5116 37.1287 72.4188 37.245 72.2936 37.245H67.7163C67.5911 37.245 67.4983 37.1287 67.5261 37.0067L69.8148 26.9642Z" fill="url(#paint27_linear_3_1517)"/>
<path d="M10.9248 28.5242C10.9709 28.322 11.259 28.322 11.3051 28.5242L13.5937 38.5667C13.6216 38.6887 13.5288 38.805 13.4036 38.805H8.82626C8.70107 38.805 8.60832 38.6887 8.63613 38.5667L10.9248 28.5242Z" fill="url(#paint28_linear_3_1517)"/>
<path d="M8.19484 25.7943C8.24092 25.592 8.529 25.592 8.57509 25.7943L10.8638 35.8367C10.8916 35.9587 10.7988 36.075 10.6736 36.075H6.09628C5.97109 36.075 5.87834 35.9587 5.90615 35.8367L8.19484 25.7943Z" fill="url(#paint29_linear_3_1517)"/>
</g>
<circle cx="53.8201" cy="4.67998" r="0.39" fill="url(#paint30_linear_3_1517)"/>
<circle cx="37.245" cy="15.405" r="0.585" fill="url(#paint31_linear_3_1517)"/>
<circle cx="69.225" cy="9.16502" r="0.585" fill="url(#paint32_linear_3_1517)"/>
<circle cx="63.3751" cy="8.385" r="0.195" fill="url(#paint33_linear_3_1517)"/>
<circle cx="22.035" cy="11.895" r="0.585" fill="url(#paint34_linear_3_1517)"/>
<circle cx="26.13" cy="5.45999" r="0.78" fill="url(#paint35_linear_3_1517)"/>
<circle cx="15.0149" cy="8.385" r="0.195" fill="url(#paint36_linear_3_1517)"/>
<circle cx="36.855" cy="2.92498" r="0.195" fill="url(#paint37_linear_3_1517)"/>
<circle cx="12.285" cy="3.70501" r="0.195" fill="url(#paint38_linear_3_1517)"/>
<circle cx="19.5" cy="5.85002" r="0.39" fill="url(#paint39_linear_3_1517)"/>
<circle cx="14.04" cy="13.26" r="0.39" fill="url(#paint40_linear_3_1517)"/>
<circle cx="6.23998" cy="8.18999" r="0.39" fill="url(#paint41_linear_3_1517)"/>
<circle cx="39.585" cy="8.775" r="0.585" fill="url(#paint42_linear_3_1517)"/>
<circle cx="61.2299" cy="3.9" r="0.78" fill="url(#paint43_linear_3_1517)"/>
<circle cx="44.4599" cy="5.46001" r="0.39" fill="url(#paint44_linear_3_1517)"/>
<circle cx="17.55" cy="17.55" r="13.65" fill="white"/>
</g>
<defs>
<filter id="filter0_i_3_1517" x="0" y="0" width="78" height="35.1" filterUnits="userSpaceOnUse" color-interpolation-filters="sRGB">
<feFlood flood-opacity="0" result="BackgroundImageFix"/>
<feBlend mode="normal" in="SourceGraphic" in2="BackgroundImageFix" result="shape"/>
<feColorMatrix in="SourceAlpha" type="matrix" values="0 0 0 0 0 0 0 0 0 0 0 0 0 0 0 0 0 0 127 0" result="hardAlpha"/>
<feOffset dx="80" dy="59"/>
<feGaussianBlur stdDeviation="8"/>
<feComposite in2="hardAlpha" operator="arithmetic" k2="-1" k3="1"/>
<feColorMatrix type="matrix" values="0 0 0 0 0.952941 0 0 0 0 0.258824 0 0 0 0 0.0156863 0 0 0 1 0"/>
<feBlend mode="color" in2="shape" result="effect1_innerShadow_3_1517"/>
</filter>
<filter id="filter1_i_3_1517" x="0" y="0" width="78" height="37.44" filterUnits="userSpaceOnUse" color-interpolation-filters="sRGB">
<feFlood flood-opacity="0" result="BackgroundImageFix"/>
<feBlend mode="normal" in="SourceGraphic" in2="BackgroundImageFix" result="shape"/>
<feColorMatrix in="SourceAlpha" type="matrix" values="0 0 0 0 0 0 0 0 0 0 0 0 0 0 0 0 0 0 127 0" result="hardAlpha"/>
<feMorphology radius="1.17" operator="erode" in="SourceAlpha" result="effect1_innerShadow_3_1517"/>
<feOffset dy="2.34"/>
<feGaussianBlur stdDeviation="1.56"/>
<feComposite in2="hardAlpha" operator="arithmetic" k2="-1" k3="1"/>
<feColorMatrix type="matrix" values="0 0 0 0 0 0 0 0 0 0 0 0 0 0 0 0 0 0 0.25 0"/>
<feBlend mode="normal" in2="shape" result="effect1_innerShadow_3_1517"/>
</filter>
<linearGradient id="paint0_linear_3_1517" x1="39" y1="0" x2="39" y2="35.1" gradientUnits="userSpaceOnUse">
<stop stop-color="#364BBA"/>
<stop offset="1" stop-color="#A979D9"/>
</linearGradient>
<linearGradient id="paint1_linear_3_1517" x1="39" y1="0" x2="39" y2="35.1" gradientUnits="userSpaceOnUse">
<stop stop-color="#ABFAFF"/>
<stop offset="1" stop-color="#D5FFAB"/>
</linearGradient>
<linearGradient id="paint2_linear_3_1517" x1="53.82" y1="6.04499" x2="53.82" y2="24.18" gradientUnits="userSpaceOnUse">
<stop offset="0.261829" stop-color="#A5C5EB"/>
<stop offset="0.699362" stop-color="#51EAFF" stop-opacity="0"/>
</linearGradient>
<linearGradient id="paint3_linear_3_1517" x1="41.4374" y1="15.9901" x2="41.4374" y2="53.6323" gradientUnits="userSpaceOnUse">
<stop stop-color="#6A86EB"/>
<stop offset="0.553516" stop-color="#010203"/>
</linearGradient>
<linearGradient id="paint4_linear_3_1517" x1="27.105" y1="14.82" x2="27.105" y2="37.44" gradientUnits="userSpaceOnUse">
<stop offset="0.290234" stop-color="#6783CA"/>
<stop offset="1" stop-color="#271B59"/>
</linearGradient>
<linearGradient id="paint5_linear_3_1517" x1="51.6749" y1="14.04" x2="51.6749" y2="36.66" gradientUnits="userSpaceOnUse">
<stop offset="0.290234" stop-color="#6783CA"/>
<stop offset="1" stop-color="#271B59"/>
</linearGradient>
<linearGradient id="paint6_linear_3_1517" x1="71.175" y1="14.04" x2="71.175" y2="42.12" gradientUnits="userSpaceOnUse">
<stop offset="0.290234" stop-color="#6783CA"/>
<stop offset="1" stop-color="#271B59"/>
</linearGradient>
<linearGradient id="paint7_linear_3_1517" x1="11.505" y1="12.09" x2="11.505" y2="40.17" gradientUnits="userSpaceOnUse">
<stop offset="0.290234" stop-color="#6783CA"/>
<stop offset="1" stop-color="#271B59"/>
</linearGradient>
<linearGradient id="paint8_linear_3_1517" x1="15.795" y1="26.52" x2="15.795" y2="41.34" gradientUnits="userSpaceOnUse">
<stop stop-color="#111F51"/>
<stop offset="1" stop-color="#83459F" stop-opacity="0"/>
</linearGradient>
<linearGradient id="paint9_linear_3_1517" x1="13.065" y1="28.47" x2="13.065" y2="43.29" gradientUnits="userSpaceOnUse">
<stop stop-color="#111F51"/>
<stop offset="1" stop-color="#83459F" stop-opacity="0"/>
</linearGradient>
<linearGradient id="paint10_linear_3_1517" x1="18.915" y1="28.47" x2="18.915" y2="43.29" gradientUnits="userSpaceOnUse">
<stop stop-color="#111F51"/>
<stop offset="1" stop-color="#83459F" stop-opacity="0"/>
</linearGradient>
<linearGradient id="paint11_linear_3_1517" x1="22.425" y1="27.3" x2="22.425" y2="42.12" gradientUnits="userSpaceOnUse">
<stop stop-color="#111F51"/>
<stop offset="1" stop-color="#83459F" stop-opacity="0"/>
</linearGradient>
<linearGradient id="paint12_linear_3_1517" x1="25.155" y1="27.69" x2="25.155" y2="42.51" gradientUnits="userSpaceOnUse">
<stop stop-color="#111F51"/>
<stop offset="1" stop-color="#83459F" stop-opacity="0"/>
</linearGradient>
<linearGradient id="paint13_linear_3_1517" x1="27.885" y1="28.47" x2="27.885" y2="43.29" gradientUnits="userSpaceOnUse">
<stop stop-color="#111F51"/>
<stop offset="1" stop-color="#83459F" stop-opacity="0"/>
</linearGradient>
<linearGradient id="paint14_linear_3_1517" x1="30.225" y1="26.13" x2="30.225" y2="40.95" gradientUnits="userSpaceOnUse">
<stop stop-color="#111F51"/>
<stop offset="1" stop-color="#83459F" stop-opacity="0"/>
</linearGradient>
<linearGradient id="paint15_linear_3_1517" x1="34.125" y1="27.69" x2="34.125" y2="42.51" gradientUnits="userSpaceOnUse">
<stop stop-color="#111F51"/>
<stop offset="1" stop-color="#83459F" stop-opacity="0"/>
</linearGradient>
<linearGradient id="paint16_linear_3_1517" x1="37.635" y1="29.25" x2="37.635" y2="44.07" gradientUnits="userSpaceOnUse">
<stop stop-color="#111F51"/>
<stop offset="1" stop-color="#83459F" stop-opacity="0"/>
</linearGradient>
<linearGradient id="paint17_linear_3_1517" x1="41.145" y1="27.3" x2="41.145" y2="42.12" gradientUnits="userSpaceOnUse">
<stop stop-color="#111F51"/>
<stop offset="1" stop-color="#83459F" stop-opacity="0"/>
</linearGradient>
<linearGradient id="paint18_linear_3_1517" x1="43.4851" y1="29.25" x2="43.4851" y2="44.07" gradientUnits="userSpaceOnUse">
<stop stop-color="#111F51"/>
<stop offset="1" stop-color="#83459F" stop-opacity="0"/>
</linearGradient>
<linearGradient id="paint19_linear_3_1517" x1="45.435" y1="30.03" x2="45.435" y2="44.85" gradientUnits="userSpaceOnUse">
<stop stop-color="#111F51"/>
<stop offset="1" stop-color="#83459F" stop-opacity="0"/>
</linearGradient>
<linearGradient id="paint20_linear_3_1517" x1="48.165" y1="27.69" x2="48.165" y2="42.51" gradientUnits="userSpaceOnUse">
<stop stop-color="#111F51"/>
<stop offset="1" stop-color="#83459F" stop-opacity="0"/>
</linearGradient>
<linearGradient id="paint21_linear_3_1517" x1="51.285" y1="29.25" x2="51.285" y2="44.07" gradientUnits="userSpaceOnUse">
<stop stop-color="#111F51"/>
<stop offset="1" stop-color="#83459F" stop-opacity="0"/>
</linearGradient>
<linearGradient id="paint22_linear_3_1517" x1="54.405" y1="26.91" x2="54.405" y2="41.73" gradientUnits="userSpaceOnUse">
<stop stop-color="#111F51"/>
<stop offset="1" stop-color="#83459F" stop-opacity="0"/>
</linearGradient>
<linearGradient id="paint23_linear_3_1517" x1="57.525" y1="28.47" x2="57.525" y2="43.29" gradientUnits="userSpaceOnUse">
<stop stop-color="#111F51"/>
<stop offset="1" stop-color="#83459F" stop-opacity="0"/>
</linearGradient>
<linearGradient id="paint24_linear_3_1517" x1="60.645" y1="26.52" x2="60.645" y2="41.34" gradientUnits="userSpaceOnUse">
<stop stop-color="#111F51"/>
<stop offset="1" stop-color="#83459F" stop-opacity="0"/>
</linearGradient>
<linearGradient id="paint25_linear_3_1517" x1="63.765" y1="27.69" x2="63.765" y2="42.51" gradientUnits="userSpaceOnUse">
<stop stop-color="#111F51"/>
<stop offset="1" stop-color="#83459F" stop-opacity="0"/>
</linearGradient>
<linearGradient id="paint26_linear_3_1517" x1="66.885" y1="24.96" x2="66.885" y2="39.78" gradientUnits="userSpaceOnUse">
<stop stop-color="#111F51"/>
<stop offset="1" stop-color="#83459F" stop-opacity="0"/>
</linearGradient>
<linearGradient id="paint27_linear_3_1517" x1="70.005" y1="26.13" x2="70.005" y2="40.95" gradientUnits="userSpaceOnUse">
<stop stop-color="#111F51"/>
<stop offset="1" stop-color="#83459F" stop-opacity="0"/>
</linearGradient>
<linearGradient id="paint28_linear_3_1517" x1="11.1149" y1="27.69" x2="11.1149" y2="42.51" gradientUnits="userSpaceOnUse">
<stop stop-color="#111F51"/>
<stop offset="1" stop-color="#83459F" stop-opacity="0"/>
</linearGradient>
<linearGradient id="paint29_linear_3_1517" x1="8.38496" y1="24.96" x2="8.38496" y2="39.78" gradientUnits="userSpaceOnUse">
<stop stop-color="#111F51"/>
<stop offset="1" stop-color="#83459F" stop-opacity="0"/>
</linearGradient>
<linearGradient id="paint30_linear_3_1517" x1="53.8201" y1="4.28998" x2="53.8201" y2="5.06998" gradientUnits="userSpaceOnUse">
<stop stop-color="#FFFEDA"/>
<stop offset="1" stop-color="#FFFEDA" stop-opacity="0.59"/>
</linearGradient>
<linearGradient id="paint31_linear_3_1517" x1="37.245" y1="14.82" x2="37.245" y2="15.99" gradientUnits="userSpaceOnUse">
<stop stop-color="#FFFEDA"/>
<stop offset="1" stop-color="#FFFEDA" stop-opacity="0.59"/>
</linearGradient>
<linearGradient id="paint32_linear_3_1517" x1="69.225" y1="8.58002" x2="69.225" y2="9.75002" gradientUnits="userSpaceOnUse">
<stop stop-color="#FFFEDA"/>
<stop offset="1" stop-color="#FFFEDA" stop-opacity="0.59"/>
</linearGradient>
<linearGradient id="paint33_linear_3_1517" x1="63.3751" y1="8.19" x2="63.3751" y2="8.58" gradientUnits="userSpaceOnUse">
<stop stop-color="#FFFEDA"/>
<stop offset="1" stop-color="#FFFEDA" stop-opacity="0.59"/>
</linearGradient>
<linearGradient id="paint34_linear_3_1517" x1="22.035" y1="11.31" x2="22.035" y2="12.48" gradientUnits="userSpaceOnUse">
<stop stop-color="#FFFEDA"/>
<stop offset="1" stop-color="#FFFEDA" stop-opacity="0.59"/>
</linearGradient>
<linearGradient id="paint35_linear_3_1517" x1="26.13" y1="4.67999" x2="26.13" y2="6.23999" gradientUnits="userSpaceOnUse">
<stop stop-color="#FFFEDA"/>
<stop offset="1" stop-color="#FFFEDA" stop-opacity="0.59"/>
</linearGradient>
<linearGradient id="paint36_linear_3_1517" x1="15.0149" y1="8.19" x2="15.0149" y2="8.58" gradientUnits="userSpaceOnUse">
<stop stop-color="#FFFEDA"/>
<stop offset="1" stop-color="#FFFEDA" stop-opacity="0.59"/>
</linearGradient>
<linearGradient id="paint37_linear_3_1517" x1="36.855" y1="2.72998" x2="36.855" y2="3.11998" gradientUnits="userSpaceOnUse">
<stop stop-color="#FFFEDA"/>
<stop offset="1" stop-color="#FFFEDA" stop-opacity="0.59"/>
</linearGradient>
<linearGradient id="paint38_linear_3_1517" x1="12.285" y1="3.51001" x2="12.285" y2="3.90001" gradientUnits="userSpaceOnUse">
<stop stop-color="#FFFEDA"/>
<stop offset="1" stop-color="#FFFEDA" stop-opacity="0.59"/>
</linearGradient>
<linearGradient id="paint39_linear_3_1517" x1="19.5" y1="5.46002" x2="19.5" y2="6.24002" gradientUnits="userSpaceOnUse">
<stop stop-color="#FFFEDA"/>
<stop offset="1" stop-color="#FFFEDA" stop-opacity="0.59"/>
</linearGradient>
<linearGradient id="paint40_linear_3_1517" x1="14.04" y1="12.87" x2="14.04" y2="13.65" gradientUnits="userSpaceOnUse">
<stop stop-color="#FFFEDA"/>
<stop offset="1" stop-color="#FFFEDA" stop-opacity="0.59"/>
</linearGradient>
<linearGradient id="paint41_linear_3_1517" x1="6.23998" y1="7.79999" x2="6.23998" y2="8.57999" gradientUnits="userSpaceOnUse">
<stop stop-color="#FFFEDA"/>
<stop offset="1" stop-color="#FFFEDA" stop-opacity="0.59"/>
</linearGradient>
<linearGradient id="paint42_linear_3_1517" x1="39.585" y1="8.19" x2="39.585" y2="9.36" gradientUnits="userSpaceOnUse">
<stop stop-color="#FFFEDA"/>
<stop offset="1" stop-color="#FFFEDA" stop-opacity="0.59"/>
</linearGradient>
<linearGradient id="paint43_linear_3_1517" x1="61.23" y1="3.12" x2="61.23" y2="4.68" gradientUnits="userSpaceOnUse">
<stop stop-color="#FFFEDA"/>
<stop offset="1" stop-color="#FFFEDA" stop-opacity="0.59"/>
</linearGradient>
<linearGradient id="paint44_linear_3_1517" x1="44.4599" y1="5.07001" x2="44.4599" y2="5.85001" gradientUnits="userSpaceOnUse">
<stop stop-color="#FFFEDA"/>
<stop offset="1" stop-color="#FFFEDA" stop-opacity="0.59"/>
</linearGradient>
</defs>
</svg>
